# xmcd CD database file
#
# Track frame offsets:
#	150
#	20270
#	33967
#	56385
#	72760
#	91827
#
# Disc length: 1498 seconds
#
# Revision: 0
# Processed by: cddbd v1.5.1PL2 Copyright (c) Steve Scherf et al.
# Submitted via: CDex 1.50
#
DISCID=3c05d806
DTITLE=Axel von Hagen - A Pocketful Of Blues
DYEAR=1998
DGENRE=Blues
TTITLE0=Twist And Shout
TTITLE1=I Love My Baby
TTITLE2=Hound Dog
TTITLE3=Boogie For My Life
TTITLE4=Lovelight
TTITLE5=Green Shoes
EXTD=YEAR: 1998
EXTT0=
EXTT1=
EXTT2=
EXTT3=
EXTT4=
EXTT5=
PLAYORDER=
